<svg width="1440" height="5246" viewBox="0 0 1440 5246" fill="none" xmlns="http://www.w3.org/2000/svg">
<g filter="url(#filter0_f_19_1635)">
<path d="M860.304 -136.767C556.452 60.6512 66.1696 501.322 535.852 684.663C1005.54 868.004 1540.11 623.721 1748.68 478.662" stroke="url(#paint0_linear_19_1635)" stroke-opacity="0.1" stroke-width="200"/>
</g>
<g filter="url(#filter1_f_19_1635)">
<path d="M1095.58 -288.867C791.732 -91.4487 301.449 349.222 771.132 532.563C1240.81 715.904 1775.39 471.621 1983.96 326.562" stroke="url(#paint1_linear_19_1635)" stroke-opacity="0.1" stroke-width="200"/>
</g>
<g filter="url(#filter2_f_19_1635)">
<path d="M999.718 1736.31C1516.32 1837.66 2349.88 2063.89 1551.34 2158.02C752.802 2252.14 -156.06 2126.73 -510.674 2052.26" stroke="url(#paint2_linear_19_1635)" stroke-opacity="0.1" stroke-width="200"/>
</g>
<g filter="url(#filter3_f_19_1635)">
<path d="M599.704 1658.22C1116.3 1759.57 1949.86 1985.81 1151.33 2079.93C352.788 2174.05 -556.074 2048.64 -910.687 1974.17" stroke="url(#paint3_linear_19_1635)" stroke-opacity="0.1" stroke-width="200"/>
</g>
<g filter="url(#filter4_f_19_1635)">
<path d="M214.705 3685.19C-310.893 3655.32 -1174.52 3667.87 -424.234 3957C326.05 4246.13 1237.63 4349.92 1599.64 4365.67" stroke="url(#paint4_linear_19_1635)" stroke-opacity="0.1" stroke-width="200"/>
</g>
<g filter="url(#filter5_f_19_1635)">
<path d="M621.59 3708.69C95.9924 3678.83 -767.632 3691.38 -17.3485 3980.51C732.935 4269.63 1644.52 4373.43 2006.53 4389.18" stroke="url(#paint5_linear_19_1635)" stroke-opacity="0.1" stroke-width="200"/>
</g>
<g opacity="0.1">
<path d="M0.319824 -25.8162V5350.24" stroke="#7D7D7D"/>
<path d="M144.32 -25.8162V5350.24" stroke="#7D7D7D"/>
<path d="M288.32 -25.8162V5350.24" stroke="#7D7D7D"/>
<path d="M432.32 -25.8162V5350.24" stroke="#7D7D7D"/>
<path d="M576.32 -25.8162V5350.24" stroke="#7D7D7D"/>
<path d="M720.32 -25.8162V5350.24" stroke="#7D7D7D"/>
<path d="M864.32 -25.8162V5350.24" stroke="#7D7D7D"/>
<path d="M1008.32 -25.8162V5350.24" stroke="#7D7D7D"/>
<path d="M1152.32 -25.8162V5350.24" stroke="#7D7D7D"/>
<path d="M1296.32 -25.8162V5350.24" stroke="#7D7D7D"/>
<path d="M1440.32 -25.8162V5350.24" stroke="#7D7D7D"/>
<path d="M0.319824 116.184H1440.32" stroke="#7D7D7D"/>
<path d="M0.319824 258.184H1440.32" stroke="#7D7D7D"/>
<path d="M0.319824 400.184H1440.32" stroke="#7D7D7D"/>
<path d="M0.319824 542.184H1440.32" stroke="#7D7D7D"/>
<path d="M0.319824 684.184H1440.32" stroke="#7D7D7D"/>
<path d="M0.319824 826.184H1440.32" stroke="#7D7D7D"/>
<path d="M0.319824 968.184H1440.32" stroke="#7D7D7D"/>
<path d="M0.319824 1110.18H1440.32" stroke="#7D7D7D"/>
<path d="M0.319824 1252.18H1440.32" stroke="#7D7D7D"/>
<path d="M0.319824 1394.18H1440.32" stroke="#7D7D7D"/>
<path d="M0.319824 1536.18H1440.32" stroke="#7D7D7D"/>
<path d="M0.319824 1678.18H1440.32" stroke="#7D7D7D"/>
<path d="M0.319824 1820.18H1440.32" stroke="#7D7D7D"/>
<path d="M0.319824 1962.18H1440.32" stroke="#7D7D7D"/>
<path d="M0.319824 2104.18H1440.32" stroke="#7D7D7D"/>
<path d="M0.319824 2246.18H1440.32" stroke="#7D7D7D"/>
<path d="M0.319824 2388.18H1440.32" stroke="#7D7D7D"/>
<path d="M0.319824 2530.18H1440.32" stroke="#7D7D7D"/>
<path d="M0.319824 2672.18H1440.32" stroke="#7D7D7D"/>
<path d="M0.319824 2814.18H1440.32" stroke="#7D7D7D"/>
<path d="M0.319824 2956.18H1440.32" stroke="#7D7D7D"/>
<path d="M0.319824 3098.18H1440.32" stroke="#7D7D7D"/>
<path d="M0.319824 3240.18H1440.32" stroke="#7D7D7D"/>
<path d="M0.319824 3382.18H1440.32" stroke="#7D7D7D"/>
<path d="M0.319824 3524.18H1440.32" stroke="#7D7D7D"/>
<path d="M0.319824 3666.18H1440.32" stroke="#7D7D7D"/>
<path d="M0.319824 3808.18H1440.32" stroke="#7D7D7D"/>
<path d="M0.319824 3950.18H1440.32" stroke="#7D7D7D"/>
<path d="M0.319824 4092.18H1440.32" stroke="#7D7D7D"/>
<path d="M0.319824 4234.18H1440.32" stroke="#7D7D7D"/>
<path d="M0.319824 4376.18H1440.32" stroke="#7D7D7D"/>
<path d="M0.319824 4518.18H1440.32" stroke="#7D7D7D"/>
<path d="M0.319824 4660.18H1440.32" stroke="#7D7D7D"/>
<path d="M0.319824 4802.18H1440.32" stroke="#7D7D7D"/>
<path d="M0.319824 4944.18H1440.32" stroke="#7D7D7D"/>
<path d="M0.319824 5086.18H1440.32" stroke="#7D7D7D"/>
<path d="M0.319824 5228.18H1440.32" stroke="#7D7D7D"/>
</g>
<defs>
<filter id="filter0_f_19_1635" x="-58.6743" y="-520.622" width="2164.46" height="1670.86" filterUnits="userSpaceOnUse" color-interpolation-filters="sRGB">
<feFlood flood-opacity="0" result="BackgroundImageFix"/>
<feBlend mode="normal" in="SourceGraphic" in2="BackgroundImageFix" result="shape"/>
<feGaussianBlur stdDeviation="150" result="effect1_foregroundBlur_19_1635"/>
</filter>
<filter id="filter1_f_19_1635" x="176.605" y="-672.722" width="2164.46" height="1670.86" filterUnits="userSpaceOnUse" color-interpolation-filters="sRGB">
<feFlood flood-opacity="0" result="BackgroundImageFix"/>
<feBlend mode="normal" in="SourceGraphic" in2="BackgroundImageFix" result="shape"/>
<feGaussianBlur stdDeviation="150" result="effect1_foregroundBlur_19_1635"/>
</filter>
<filter id="filter2_f_19_1635" x="-831.226" y="1338.18" width="3113.24" height="1253.49" filterUnits="userSpaceOnUse" color-interpolation-filters="sRGB">
<feFlood flood-opacity="0" result="BackgroundImageFix"/>
<feBlend mode="normal" in="SourceGraphic" in2="BackgroundImageFix" result="shape"/>
<feGaussianBlur stdDeviation="150" result="effect1_foregroundBlur_19_1635"/>
</filter>
<filter id="filter3_f_19_1635" x="-1231.24" y="1260.09" width="3113.24" height="1253.49" filterUnits="userSpaceOnUse" color-interpolation-filters="sRGB">
<feFlood flood-opacity="0" result="BackgroundImageFix"/>
<feBlend mode="normal" in="SourceGraphic" in2="BackgroundImageFix" result="shape"/>
<feGaussianBlur stdDeviation="150" result="effect1_foregroundBlur_19_1635"/>
</filter>
<filter id="filter4_f_19_1635" x="-1117.73" y="3274.12" width="3021.72" height="1491.46" filterUnits="userSpaceOnUse" color-interpolation-filters="sRGB">
<feFlood flood-opacity="0" result="BackgroundImageFix"/>
<feBlend mode="normal" in="SourceGraphic" in2="BackgroundImageFix" result="shape"/>
<feGaussianBlur stdDeviation="150" result="effect1_foregroundBlur_19_1635"/>
</filter>
<filter id="filter5_f_19_1635" x="-710.842" y="3297.63" width="3021.72" height="1491.46" filterUnits="userSpaceOnUse" color-interpolation-filters="sRGB">
<feFlood flood-opacity="0" result="BackgroundImageFix"/>
<feBlend mode="normal" in="SourceGraphic" in2="BackgroundImageFix" result="shape"/>
<feGaussianBlur stdDeviation="150" result="effect1_foregroundBlur_19_1635"/>
</filter>
<linearGradient id="paint0_linear_19_1635" x1="970.516" y1="750.237" x2="751.872" y2="-136.767" gradientUnits="userSpaceOnUse">
<stop offset="0.385" stop-color="#FFA666"/>
<stop offset="1" stop-color="#FFCCA7"/>
</linearGradient>
<linearGradient id="paint1_linear_19_1635" x1="1205.8" y1="598.137" x2="987.152" y2="-288.866" gradientUnits="userSpaceOnUse">
<stop offset="0.385" stop-color="#FFA666"/>
<stop offset="1" stop-color="#FFCCA7"/>
</linearGradient>
<linearGradient id="paint2_linear_19_1635" x1="812.34" y1="2191.68" x2="848.096" y2="1711.3" gradientUnits="userSpaceOnUse">
<stop offset="0.385" stop-color="#FFA666"/>
<stop offset="1" stop-color="#FFCCA7"/>
</linearGradient>
<linearGradient id="paint3_linear_19_1635" x1="412.326" y1="2113.6" x2="448.082" y2="1633.22" gradientUnits="userSpaceOnUse">
<stop offset="0.385" stop-color="#FFA666"/>
<stop offset="1" stop-color="#FFCCA7"/>
</linearGradient>
<linearGradient id="paint4_linear_19_1635" x1="283.356" y1="4172.8" x2="367.793" y2="3698.54" gradientUnits="userSpaceOnUse">
<stop offset="0.385" stop-color="#FFA666"/>
<stop offset="1" stop-color="#FFCCA7"/>
</linearGradient>
<linearGradient id="paint5_linear_19_1635" x1="690.242" y1="4196.3" x2="774.679" y2="3722.05" gradientUnits="userSpaceOnUse">
<stop offset="0.385" stop-color="#FFA666"/>
<stop offset="1" stop-color="#FFCCA7"/>
</linearGradient>
</defs>
</svg>
