<svg width="148" height="225" viewBox="0 0 148 225" fill="none" xmlns="http://www.w3.org/2000/svg">
<path d="M160.587 83.8117C156.773 93.7007 152.906 103.693 147.012 112.362C141.119 121.031 132.914 128.38 123.114 130.899C114.351 133.15 105.01 131.368 96.6895 127.685C88.3689 124.004 80.8919 118.516 73.4861 113.07C71.4271 111.556 69.3258 109.996 67.8808 107.827C63.3237 100.987 66.1613 89.4681 69.8636 82.0709C67.4266 81.1937 64.9384 80.2878 62.9069 78.6132C60.8755 76.9386 59.3506 74.3207 59.589 71.6054C59.9321 67.6872 63.6669 64.8946 64.2521 61.0076C64.5641 58.9349 63.9302 56.8485 63.305 54.8582C60.7182 46.6188 38.9136 36.6299 40.1502 21.1568C41.0462 9.94254 120.692 -3.09855 131.662 1.50345C135.753 3.21922 134.108 22.6667 135.225 31.9456C139.043 37.6157 147.318 31.7983 153.025 33.8036C157.485 35.3696 160.666 39.7732 162.071 44.5224C163.476 49.2717 163.352 54.3678 162.979 59.3292C162.354 67.6048 163.55 76.1275 160.587 83.8117Z" fill="#79393A"/>
<path d="M81.8008 106.51C81.8008 106.51 86.5201 93.5749 102.124 88.5998C122.589 82.0761 140.113 89.0078 140.113 89.0078C140.113 89.0078 124.271 119.512 81.8008 106.51Z" fill="#FCC3A6"/>
<path d="M65.9838 165.625C65.9838 165.625 70.2851 110.449 82.8807 103.601L108.626 147.507C108.626 147.507 101.878 212.368 77.223 219.28C57.8042 224.723 35.7064 171.561 25.8335 164.321C16.0493 157.146 19.3074 148.44 16.4686 144.793C9.37962 135.689 22.0576 128.03 22.0576 128.03C28.7959 124.5 41.53 126.125 40.1 131.895C40.1 131.895 58.7438 160.018 65.9838 165.625Z" fill="#F7FFF8"/>
<path d="M84.6445 161.635C84.6445 161.635 91.6361 180.343 100.818 185.371C100.818 185.371 104.676 171.665 107.461 159.312L84.6445 161.635Z" fill="#0D0000"/>
<path d="M31.5046 133.397C32.4767 132.253 33.0619 130.854 33.0719 128.865C33.0843 126.242 32.6925 122.269 31.678 120.17C30.1569 117.017 25.1743 107.986 22.4129 107.175C19.6527 106.365 23.3538 114.496 24.0813 116.178C24.8087 117.861 24.6852 119.278 24.6852 119.278C24.6852 119.278 14.7662 101.299 12.5051 100.905C10.244 100.511 14.876 111.32 16.039 113.984C16.039 113.984 7.82198 100.861 6.30711 101.072C3.2674 101.494 11.976 116.334 11.976 116.334C11.976 116.334 4.50775 105.654 2.80945 106.958C1.01008 108.339 9.03861 119.758 9.03861 119.758C9.03861 119.758 3.16634 113.521 1.19726 113.971C-0.770569 114.419 10.5623 128.482 12.5613 130.431C14.5603 132.379 20.5274 138.981 24.4693 138.507C26.9276 138.211 30.0022 135.166 31.5046 133.397Z" fill="#FCC3A6"/>
<path d="M34.6064 129.764C34.5528 129.247 33.8652 129.121 33.6868 129.64C31.5804 135.791 24.0847 137.523 18.2711 138.043C18.0277 138.065 17.9828 138.378 18.2137 138.464C21.8973 139.832 25.8828 138.237 29.2595 136.63C31.9648 135.342 34.9483 133.099 34.6064 129.764Z" fill="#79373B"/>
<path d="M72.1064 176.225C70.8436 174.304 69.6793 172.324 68.6499 170.269C67.7502 168.472 67.1812 166.34 65.9221 164.774C65.7162 164.518 65.2832 164.735 65.2894 165.036C65.2944 165.243 65.3157 165.45 65.3431 165.658C64.3124 167.674 64.5882 170.727 64.5258 172.877C64.4971 173.88 66.0756 173.883 66.0856 172.877C66.098 171.544 66.1268 170.212 66.1729 168.88C66.1779 168.73 66.1854 168.582 66.1929 168.433C66.526 169.193 66.8992 169.932 67.2311 170.63C68.278 172.831 69.4959 174.931 70.8348 176.967C71.3527 177.756 72.628 177.019 72.1064 176.225Z" fill="#79373B"/>
<path d="M24.2705 119.044C23.2622 120.28 22.813 121.937 22.7993 123.52C22.788 124.762 22.9927 126.827 24.2829 127.387C24.4089 127.442 24.5862 127.41 24.6199 127.25C24.842 126.187 24.2118 125.083 24.1457 123.998C24.0508 122.42 24.5412 121.144 25.1664 119.734C25.4035 119.199 24.7159 118.497 24.2705 119.044Z" fill="#F39385"/>
<path d="M17.1869 114.155C13.9513 114.048 10.1804 116.959 8.91381 119.83C8.74661 120.21 9.21703 120.688 9.54146 120.314C10.657 119.037 11.7027 117.786 13.1427 116.849C14.4779 115.979 15.9765 115.604 17.4016 114.945C17.8046 114.759 17.575 114.169 17.1869 114.155Z" fill="#F39385"/>
<path d="M97.2476 91.3723C97.2476 91.3723 97.9477 96.562 105.034 96.29C120.309 95.7035 120.309 87.6662 120.309 87.6662C118.305 82.7548 117.641 77.6399 117.376 73.1252C117.239 70.8417 117.262 69.3293 117.262 69.3293L117.258 69.3331L96.5938 81.0003L96.9481 86.5806L97.1203 89.3321L97.2476 91.3723Z" fill="#FCC3A6"/>
<path d="M96.5938 81.0002L96.9481 86.5805C96.9481 86.5805 115.317 85.3364 117.264 70.1653L96.5938 81.0002Z" fill="#0D0000"/>
<path d="M82.1364 52.9879C82.1364 52.9879 80.2909 48.6717 75.9983 49.9944C71.7058 51.3171 73.6063 69.4131 84.2565 66.9873L82.1364 52.9879Z" fill="#F48D84"/>
<path d="M124.255 47.3599C123.519 57.7918 119.613 76.5841 101.67 81.3009C91.9116 83.859 83.6136 80.1529 79.2711 69.1595C78.9093 68.2486 78.6472 67.3127 78.3727 66.3893C78.3727 66.3769 78.3602 66.3519 78.3602 66.3394C78.0358 65.2413 77.7488 64.1308 77.4742 63.0452C77.4618 62.9952 77.4493 62.9578 77.4368 62.9079C77.3619 62.5959 77.2995 62.2965 77.2247 61.997C77.0999 61.4604 76.9876 60.9363 76.8753 60.4122C76.8503 60.3124 76.8379 60.2251 76.8254 60.1377C75.6899 54.6972 75.2282 49.8681 75.1408 47.3599C75.1159 46.5239 75.0909 45.6379 75.0909 44.727C75.041 36.4039 76.7255 25.5478 94.0454 21.6671C106.399 18.9094 122.733 27.6192 124.393 41.1457C124.393 41.1457 124.517 43.6039 124.255 47.3599Z" fill="#FCC3A6"/>
<path d="M100.229 52.2154C100.41 53.6529 101.192 54.7372 101.976 54.6387C102.76 54.5401 103.248 53.2947 103.067 51.8572C102.886 50.4197 102.103 49.3354 101.32 49.434C100.536 49.5325 100.048 50.7779 100.229 52.2154Z" fill="#3B1034"/>
<path d="M82.9205 54.5337C83.1014 55.9712 83.8839 57.0556 84.6675 56.957C85.4511 56.8585 85.9403 55.6131 85.7581 54.1756C85.5772 52.7381 84.7948 51.6537 84.0111 51.7523C83.2275 51.8509 82.7396 53.0962 82.9205 54.5337Z" fill="#3B1034"/>
<path d="M120.082 47.5161C120.082 47.5161 122.052 42.4337 127.087 43.7976C132.122 45.1615 130.64 66.2399 118.182 63.8503L120.082 47.5161Z" fill="#FCC3A6"/>
<path d="M90.1084 43.267C90.2432 44.0968 85.726 45.5169 82.987 45.9598C80.2481 46.4028 79.1961 45.8812 79.0626 45.0514C78.9291 44.2216 82.1672 43.0075 84.9062 42.5645C87.6452 42.1228 89.9749 42.4372 90.1084 43.267Z" fill="#79393A"/>
<path d="M96.2934 43.2484C96.241 44.0882 100.873 45.0628 103.642 45.2375C106.411 45.4122 107.407 44.792 107.46 43.9534C107.514 43.1149 104.172 42.2202 101.403 42.0455C98.6343 41.8708 96.3471 42.4099 96.2934 43.2484Z" fill="#79393A"/>
<path d="M126.493 54.7247C125.777 54.7796 125.117 54.9481 124.491 55.2238C124.632 53.7165 124.957 51.7599 126.052 51.1072C126.741 50.6967 126.115 49.6173 125.422 50.0291C123.499 51.1759 123.303 54.3391 123.154 56.3344C123.12 56.7849 123.718 57.1405 124.092 56.8735C124.828 56.3469 125.583 56.0424 126.492 55.9725C127.289 55.9114 127.295 54.6636 126.493 54.7247Z" fill="#F39385"/>
<path d="M95.8035 64.9294C95.2469 64.8608 92.3756 64.4927 92.1448 63.8775C92.0088 63.5169 92.7475 62.3002 92.916 61.8535C93.6098 60.0167 93.9442 58.105 94.029 56.1497C94.064 55.3473 92.8161 55.3486 92.7812 56.1497C92.7101 57.7818 92.4505 59.3803 91.9252 60.9289C91.6394 61.7712 90.5451 63.155 90.7972 64.1308C91.199 65.6893 94.5768 66.025 95.8035 66.1772C96.5983 66.2758 96.5908 65.0267 95.8035 64.9294Z" fill="#F39385"/>
<path d="M103.944 68.4371C103.944 68.4371 94.5718 69.6425 89.2461 69.0011C89.2461 69.0011 89.2249 75.4536 97.3033 74.5727C103.987 73.8427 103.944 68.4371 103.944 68.4371Z" fill="white"/>
<path d="M104.11 60.234C104.271 61.5779 106.575 62.4078 109.257 62.0858C111.937 61.7651 113.981 60.415 113.82 59.0698C113.659 57.7259 111.355 56.8961 108.674 57.218C105.992 57.54 103.949 58.8901 104.11 60.234Z" fill="#F39385"/>
<path d="M84.5369 63.3196C84.6991 64.6673 82.6527 66.0149 79.9699 66.3393C79.4208 66.4017 78.8842 66.4142 78.3726 66.3893C78.3726 66.3768 78.3601 66.3518 78.3601 66.3393C78.0357 65.2413 77.7487 64.1307 77.4742 63.0451C77.4617 62.9952 77.4492 62.9577 77.4368 62.9078C77.3619 62.5958 77.2995 62.2964 77.2246 61.9969C77.861 61.7473 78.6097 61.5601 79.3959 61.4728C82.0787 61.1484 84.3747 61.9719 84.5369 63.3196Z" fill="#F39385"/>
<path d="M126.222 42.2478C124.25 43.9186 122.019 45.2813 119.632 46.2708C119.131 46.4779 118.598 46.6739 118.059 46.6102C117.092 46.4979 116.398 45.5783 116.143 44.6374C115.89 43.6978 115.959 42.7045 115.853 41.7362C115.401 37.6059 111.812 34.4463 107.978 32.8491C104.142 31.2507 83.6473 31.1334 84.2575 20.1749C91.2616 16.8357 100.867 14.2514 108.628 14.2514C121.11 14.2514 123.874 22.728 125.688 26.9656C127.501 31.2045 125.73 37.6633 126.222 42.2478Z" fill="#79393A"/>
<path d="M148.454 86.8663C144.701 86.4346 135.423 86.5806 135.423 86.5806C120.418 115.542 82.8808 103.601 82.8808 103.601C82.8808 103.601 79.0588 155.551 85.7945 163.662C92.1398 171.302 105.225 171.63 105.225 171.63C105.225 171.63 135.158 198.874 148.454 224.545V86.8663Z" fill="#F7FFF8"/>
<path d="M148.76 154.81C142.747 158.566 135.323 157.666 129.097 161.073C126.225 162.644 123.605 164.618 120.816 166.322C117.684 168.236 114.627 169.152 111.097 169.963C110.629 170.071 110.589 170.873 111.097 170.95C117.594 171.94 123.617 166.221 128.786 163.179C132.283 161.12 135.784 160.162 139.763 159.524C143.274 158.961 146.911 158.412 149.641 155.95C150.251 155.397 149.457 154.373 148.76 154.81Z" fill="#79373B"/>
<path d="M105.261 170.059C99.56 169.389 91.9084 167.957 87.7057 163.684C83.3033 159.209 86.0211 150.553 86.524 145.014C87.0268 139.474 87.2452 133.881 86.4578 128.356C85.8152 123.847 84.656 117.773 81.1895 114.506C81.0185 114.345 80.7265 114.503 80.7902 114.738C81.6112 117.757 83.2409 120.492 84.057 123.543C84.908 126.726 85.341 130.005 85.482 133.293C85.7852 140.36 84.7421 147.349 84.0258 154.358C83.5067 159.43 84.2367 163.792 88.7401 166.726C93.538 169.855 99.6561 171.249 105.263 171.882C106.427 172.015 106.412 170.195 105.261 170.059Z" fill="#79373B"/>
<path d="M140.986 89.5555C138.853 100.803 129.906 109.44 119.32 113.149C113.391 115.227 107.057 115.71 100.831 115.112C97.1883 114.763 93.7879 113.898 90.425 112.886C90.994 111.431 90.8181 108.72 90.6571 108.027C90.4737 107.235 89.3968 107.491 89.3269 108.207C89.1922 109.591 89.0873 110.917 88.8216 112.286C88.8153 112.316 88.8103 112.353 88.8041 112.387C86.2086 111.576 83.6156 110.714 80.9315 109.964C80.5322 109.853 80.2914 110.422 80.6495 110.633C86.5168 114.078 94.1236 115.648 100.829 116.311C107.523 116.974 114.611 116.431 120.94 114.038C131.501 110.044 140.325 101.274 142.452 89.9585C142.632 89.0039 141.168 88.5934 140.986 89.5555Z" fill="#79373B"/>
<path d="M104.038 111.192C103.902 110.343 103.839 109.392 103.36 108.662C103.094 108.257 102.483 108.325 102.336 108.796C102.075 109.632 102.275 110.56 102.377 111.416C102.485 112.317 102.599 113.219 102.741 114.115C102.891 115.06 104.543 114.849 104.426 113.887C104.317 112.987 104.181 112.088 104.038 111.192Z" fill="#79373B"/>
<path d="M118.945 109.133C118.514 108.249 118.131 107.326 117.571 106.515C117.157 105.916 116.132 106.264 116.348 107.03C116.6 107.926 117.029 108.755 117.414 109.6C117.762 110.364 117.974 111.303 118.744 111.726C119.056 111.897 119.544 111.761 119.617 111.37C119.781 110.517 119.313 109.889 118.945 109.133Z" fill="#79373B"/>
<path d="M131.511 103.48C130.896 102.796 130.232 102.154 129.589 101.496C128.99 100.882 128.396 100.15 127.618 99.7616C127.061 99.4833 126.576 100.032 126.81 100.569C127.159 101.364 127.874 102.001 128.455 102.63C129.079 103.305 129.688 104.003 130.339 104.652C131.101 105.412 132.221 104.27 131.511 103.48Z" fill="#79373B"/>
<path d="M138.752 93.2667C138.103 92.8461 137.373 92.5354 136.661 92.2372C135.996 91.9589 135.308 91.6619 134.583 91.8591C134.201 91.9627 134.155 92.3907 134.37 92.6652C134.788 93.1993 135.462 93.3889 136.062 93.6547C136.713 93.943 137.327 94.2999 137.969 94.6031C138.866 95.0286 139.6 93.8157 138.752 93.2667Z" fill="#79373B"/>
<path d="M158.938 60.5945C157.976 57.6359 146.885 52.4574 144.321 54.384C141.757 56.3119 144.321 58.8812 144.321 58.8812C144.321 58.8812 140.731 59.3092 140.987 60.5945C141.243 61.8797 142.525 63.3784 142.525 63.3784C142.525 63.3784 139.193 63.8064 139.193 65.3063C139.193 66.8062 141.757 68.7328 141.757 68.7328C141.757 68.7328 138.631 69.0722 139.193 70.6607C140.644 74.7624 153.022 74.0786 155.955 73.0728C159.545 71.8412 157.144 68.9475 157.144 68.9475C157.144 68.9475 160.478 67.2342 157.144 65.5209C157.144 65.5209 159.965 63.593 156.887 62.0944C156.887 62.0944 159.4 62.0158 158.938 60.5945Z" fill="#FCC3A6"/>
<path d="M156.911 65.1678C155.405 65.2227 153.926 65.3675 152.416 65.2477C150.934 65.1291 149.496 64.7473 148.023 64.6026C147.888 64.5888 147.849 64.786 147.956 64.8471C150.482 66.3033 154.204 66.5829 157.031 66.0475C157.527 65.9539 157.411 65.1491 156.911 65.1678Z" fill="#F39385"/>
<path d="M156.9 69.4056C155.371 69.3195 153.839 69.4817 152.307 69.423C150.783 69.3644 149.282 69.1834 147.752 69.2047C147.698 69.2047 147.667 69.2883 147.722 69.3132C150.439 70.5511 154.1 70.8331 156.985 70.037C157.344 69.9384 157.256 69.4268 156.9 69.4056Z" fill="#F39385"/>
</svg>
