<?xml version="1.0" encoding="UTF-8"?>
<svg version="1.1" xmlns="http://www.w3.org/2000/svg" width="512" height="512">
<path d="M0 0 C1.28777344 -0.01611328 2.57554688 -0.03222656 3.90234375 -0.04882812 C5.13339844 -0.04947266 6.36445312 -0.05011719 7.6328125 -0.05078125 C9.32108154 -0.05525269 9.32108154 -0.05525269 11.04345703 -0.05981445 C13.875 0.3125 13.875 0.3125 15.71044922 1.62426758 C17.65086373 4.43725843 17.75901296 6.9488758 17.875 10.3125 C16.73849056 12.68883793 15.73058971 14.45691029 13.875 16.3125 C12.37342387 16.44535473 10.86620966 16.51580887 9.359375 16.55859375 C8.43769531 16.59146484 7.51601563 16.62433594 6.56640625 16.65820312 C4.62119734 16.71891018 2.67588038 16.7762577 0.73046875 16.83007812 C-6.00723552 16.88785403 -6.00723552 16.88785403 -12.125 19.3125 C-14.68872765 23.93505416 -14.41467 28.58484549 -14.4034729 33.72138977 C-14.40925858 34.67075409 -14.41504425 35.62011841 -14.42100525 36.59825134 C-14.43804412 39.79120218 -14.44087435 42.98400923 -14.44384766 46.17700195 C-14.4532566 48.50046993 -14.46353547 50.82393452 -14.4746151 53.14739513 C-14.50190583 59.37512985 -14.51727429 65.60284089 -14.53019714 71.83061981 C-14.54411841 77.67239018 -14.56875968 83.514096 -14.5925293 89.35583496 C-14.65580604 106.44552011 -14.70184737 123.53526555 -14.75 140.625 C-14.87375 178.801875 -14.9975 216.97875 -15.125 256.3125 C132.385 256.3125 279.895 256.3125 431.875 256.3125 C431.75125 217.41375 431.6275 178.515 431.5 138.4375 C431.46600098 126.13484863 431.43200195 113.83219727 431.39697266 101.15673828 C431.35708419 90.17161054 431.35708419 90.17161054 431.31454468 79.18649292 C431.29560261 74.27658335 431.28228974 69.3666924 431.27230835 64.45675659 C431.25941769 58.20491014 431.23709382 51.95316594 431.20776629 45.70137572 C431.19860861 43.40004446 431.19284142 41.09869679 431.19074559 38.79734826 C431.1874533 35.70227375 431.1720659 32.60749634 431.1534729 29.51248169 C431.15540838 28.60030317 431.15734386 27.68812466 431.159338 26.74830437 C431.34669563 22.04687831 431.34669563 22.04687831 428.875 18.3125 C425.91075218 17.3160674 423.10795448 17.16664795 419.99609375 17.1015625 C419.07505859 17.07320312 418.15402344 17.04484375 417.20507812 17.015625 C415.27298396 16.9634415 413.34065931 16.91920038 411.40820312 16.8828125 C410.48845703 16.851875 409.56871094 16.8209375 408.62109375 16.7890625 C407.78247803 16.76924316 406.9438623 16.74942383 406.07983398 16.72900391 C403.3818966 16.21935036 402.50646404 15.49263999 400.875 13.3125 C399.83891871 9.31618644 399.44803572 7.2052435 401.25 3.4375 C402.875 1.3125 402.875 1.3125 403.875 0.3125 C408.38843867 0.00005437 412.91459519 0.03387098 417.4375 0 C418.70142578 -0.02900391 419.96535156 -0.05800781 421.26757812 -0.08789062 C429.83075189 -0.14608261 435.61184642 0.57667029 442.1171875 6.27734375 C442.65601563 6.92832031 443.19484375 7.57929687 443.75 8.25 C444.30429687 8.89839844 444.85859375 9.54679687 445.4296875 10.21484375 C448.19296993 14.22533744 449.12478909 17.78428943 449.13226891 22.62183857 C449.1387178 23.67884569 449.14516669 24.7358528 449.151811 25.82489043 C449.1487138 26.97993565 449.1456166 28.13498088 449.14242554 29.32502747 C449.14695665 30.55688788 449.15148776 31.78874829 449.15615618 33.0579378 C449.16662934 36.47454119 449.16812554 39.89093412 449.16576743 43.30753863 C449.16535931 46.99340678 449.17639799 50.67924353 449.18588257 54.36509705 C449.20249458 61.58547327 449.20799221 68.80581685 449.20910732 76.02621058 C449.21005772 81.89559315 449.21416758 87.76496494 449.22050858 93.6343441 C449.23812166 110.2762171 449.24734736 126.91806431 449.24584763 143.55994669 C449.24576772 144.45709055 449.2456878 145.35423441 449.24560547 146.27856445 C449.24552371 147.17680412 449.24544195 148.07504379 449.24535771 149.00050285 C449.24454482 163.5574425 449.26368292 178.11427867 449.2918822 192.67118839 C449.32061054 207.61919673 449.33442252 222.56715461 449.33269465 237.51519126 C449.33203072 245.90694434 449.33752415 254.29858894 449.35905075 262.69031715 C449.37726192 269.83537023 449.38161047 276.98026568 449.3680319 284.12533192 C449.36150182 287.76992269 449.36138613 291.41421103 449.3787384 295.05877304 C449.39736801 299.01232926 449.38491549 302.96544389 449.36947632 306.91902161 C449.37976344 308.06737466 449.39005057 309.21572772 449.40064943 310.39887935 C449.33354244 318.16803945 448.17258323 323.54945273 442.91015625 329.5546875 C442.25917969 330.09351563 441.60820312 330.63234375 440.9375 331.1875 C440.28910156 331.74179687 439.64070313 332.29609375 438.97265625 332.8671875 C434.24952097 336.12148927 429.93566193 336.60275952 424.31676006 336.56976891 C423.56037295 336.57327498 422.80398584 336.57678105 422.0246779 336.58039337 C419.48160427 336.58972214 416.93875891 336.58478027 414.39567566 336.57992554 C412.55739906 336.58366105 410.71912405 336.58826218 408.88085157 336.59365618 C403.82247315 336.60591378 398.76416074 336.60562247 393.70577085 336.60326743 C388.25301996 336.60285996 382.80029043 336.61389171 377.34754944 336.62338257 C366.66203547 336.6400086 355.97654356 336.64549284 345.29101773 336.64660732 C336.60699093 336.64755703 327.92297141 336.65166342 319.23894691 336.65800858 C294.62847189 336.67562525 270.01801331 336.6848589 245.40753206 336.68334763 C244.74414225 336.68330774 244.08075243 336.68326785 243.3972599 336.68322675 C242.05572379 336.68314587 240.71418768 336.68306228 239.37265157 336.68297596 C218.50027827 336.68175044 197.62796994 336.69676349 176.75561523 336.72412109 C153.30809047 336.7548413 129.86060134 336.77202829 106.41305429 336.77019465 C93.99713809 336.76953012 81.58129517 336.77505006 69.16539574 336.79655075 C58.59480399 336.81473831 48.02431874 336.81912982 37.45371815 336.8055319 C32.05933294 336.79899007 26.66515219 336.79892898 21.27078629 336.8162384 C16.33289651 336.83192029 11.39537413 336.82915547 6.45749358 336.81167014 C4.67083526 336.80858947 2.88414986 336.81227263 1.09752347 336.82339029 C-16.85831939 336.92772708 -16.85831939 336.92772708 -24.3671875 330.34765625 C-24.90601563 329.69667969 -25.44484375 329.04570312 -26 328.375 C-26.55429687 327.72660156 -27.10859375 327.07820313 -27.6796875 326.41015625 C-30.44296993 322.39966256 -31.37478909 318.84071057 -31.38226891 314.00316143 C-31.3887178 312.94615431 -31.39516669 311.8891472 -31.401811 310.80010957 C-31.3987138 309.64506435 -31.3956166 308.49001912 -31.39242554 307.29997253 C-31.39695665 306.06811212 -31.40148776 304.83625171 -31.40615618 303.5670622 C-31.41662934 300.15045881 -31.41812554 296.73406588 -31.41576743 293.31746137 C-31.41535931 289.63159322 -31.42639799 285.94575647 -31.43588257 282.25990295 C-31.45249458 275.03952673 -31.45799221 267.81918315 -31.45910732 260.59878942 C-31.46005772 254.72940685 -31.46416758 248.86003506 -31.47050858 242.9906559 C-31.48812166 226.3487829 -31.49734736 209.70693569 -31.49584763 193.06505331 C-31.49576772 192.16790945 -31.4956878 191.27076559 -31.49560547 190.34643555 C-31.49552371 189.44819588 -31.49544195 188.54995621 -31.49535771 187.62449715 C-31.49454482 173.0675575 -31.51368292 158.51072133 -31.5418822 143.95381161 C-31.57061054 129.00580327 -31.58442252 114.05784539 -31.58269465 99.10980874 C-31.58203072 90.71805566 -31.58752415 82.32641106 -31.60905075 73.93468285 C-31.62726192 66.78962977 -31.63161047 59.64473432 -31.6180319 52.49966808 C-31.61150182 48.85507731 -31.61138613 45.21078897 -31.6287384 41.56622696 C-31.64736801 37.61267074 -31.63491549 33.65955611 -31.61947632 29.70597839 C-31.62976344 28.55762534 -31.64005057 27.40927228 -31.65064943 26.22612065 C-31.58354244 18.45696055 -30.42258323 13.07554727 -25.16015625 7.0703125 C-24.50917969 6.53148438 -23.85820312 5.99265625 -23.1875 5.4375 C-22.53910156 4.88320312 -21.89070313 4.32890625 -21.22265625 3.7578125 C-14.64985419 -0.7709338 -7.68395094 -0.01934529 0 0 Z M-15.125 272.3125 C-17.06092135 296.12361101 -17.06092135 296.12361101 -12.125 318.3125 C-9.19800623 319.77599689 -6.25794068 319.45355696 -3.04966927 319.44672108 C-2.30905229 319.44907331 -1.56843531 319.45142554 -0.8053754 319.45384905 C1.70201962 319.46056076 4.20936308 319.46008017 6.71676636 319.45967102 C8.52230507 319.46296828 10.32784303 319.46669356 12.13338006 319.4708125 C17.11502934 319.48085606 22.09666658 319.48455306 27.07832456 319.48720181 C32.4431111 319.49109783 37.80788803 319.50067654 43.17266846 319.50941467 C56.13748104 319.52919765 69.10229444 319.53924702 82.06711835 319.54814246 C88.16631922 319.55252183 94.26551921 319.5578895 100.36471939 319.56313133 C120.62859098 319.58014445 140.89246201 319.59464032 161.15633965 319.60188007 C166.41754024 319.60379009 171.67874083 319.60571041 176.93994141 319.60766602 C178.90150494 319.60839163 178.90150494 319.60839163 180.90269603 319.6091319 C202.10363384 319.61743853 223.30451534 319.64278578 244.50542854 319.67524669 C266.25147095 319.708272 287.9974847 319.72632468 309.74355233 319.72952431 C321.96153575 319.73169348 334.17943704 319.74050145 346.39739609 319.76598549 C356.79908791 319.7876306 367.20067765 319.79577349 377.60238944 319.78601871 C382.9132275 319.78145616 388.22385466 319.78347317 393.53466415 319.80278015 C398.39165812 319.82028553 403.24828538 319.81951774 408.10528256 319.80388286 C409.86706328 319.80148746 411.62886856 319.80592922 413.39061151 319.81771151 C415.77685606 319.83268824 418.16177708 319.82325838 420.54798698 319.80748463 C421.58542231 319.82281794 421.58542231 319.82281794 422.64381593 319.83846101 C427.68154697 319.76526465 427.96477462 319.22272538 431.875 315.3125 C431.875 301.1225 431.875 286.9325 431.875 272.3125 C284.365 272.3125 136.855 272.3125 -15.125 272.3125 Z " fill="#000000" transform="translate(47.125,63.6875)"/>
<path d="M0 0 C1.11274144 -0.00644889 2.22548289 -0.01289778 3.37194377 -0.0195421 C5.19789436 -0.01489629 5.19789436 -0.01489629 7.06073284 -0.01015663 C9.00652871 -0.0169533 9.00652871 -0.0169533 10.99163359 -0.02388728 C14.590618 -0.03612307 18.1895095 -0.03585614 21.78850996 -0.03349853 C25.6706982 -0.0330905 29.55285659 -0.04412811 33.43503094 -0.05361366 C41.0404224 -0.07022786 48.64578285 -0.0757234 56.25119094 -0.07683842 C62.43331168 -0.0777887 68.6154222 -0.08189803 74.79753971 -0.08823967 C92.32481289 -0.10585331 109.85206157 -0.11507836 127.37934367 -0.11357872 C128.32427946 -0.11349881 129.26921525 -0.1134189 130.24278545 -0.11333656 C131.18887496 -0.1132548 132.13496447 -0.11317304 133.10972335 -0.1130888 C148.44264392 -0.11227589 163.77546626 -0.1314145 179.10835842 -0.1596133 C194.85189512 -0.18833884 210.5953839 -0.20215377 226.33894747 -0.20042574 C235.17782914 -0.19976172 244.01660783 -0.20525929 252.85546589 -0.22678185 C260.38113367 -0.24498932 267.90665181 -0.24934458 275.43233208 -0.235763 C279.27134284 -0.22923108 283.11006646 -0.22912394 286.94904995 -0.2464695 C291.11287855 -0.26508914 295.2760418 -0.25265164 299.43988323 -0.23720741 C300.65049146 -0.24749454 301.86109969 -0.25778167 303.10839301 -0.26838052 C311.06377952 -0.20308273 316.5315253 0.83156007 322.682971 6.22211266 C323.22179913 6.87308922 323.76062725 7.52406578 324.3157835 8.19476891 C324.87008038 8.84316734 325.42437725 9.49156578 325.995471 10.15961266 C329.94908738 15.89769913 329.72632979 21.26542003 329.70147991 28.01267052 C329.70530546 29.10921798 329.70913101 30.20576544 329.71307248 31.33554161 C329.72340668 35.01669322 329.71940951 38.69768898 329.7154417 42.37885094 C329.71978785 45.01508669 329.724906 47.65131093 329.73092937 50.28754234 C329.74367883 56.70814107 329.74546988 63.12869799 329.74312911 69.54930724 C329.7413466 74.76608203 329.74309415 79.98284412 329.74735355 85.19961739 C329.74794874 85.94187058 329.74854393 86.68412377 329.74915716 87.44886949 C329.75036889 88.95668063 329.75158302 90.46449176 329.75279953 91.9723029 C329.76367535 106.11134718 329.76151198 120.2503676 329.75541469 134.38941322 C329.7502416 147.33308463 329.76151121 160.27668087 329.78051291 173.22033741 C329.79986762 186.50607311 329.80815172 199.79177321 329.80438966 213.07752311 C329.8024745 220.53850649 329.80499592 227.99942582 329.81910419 235.46039772 C329.83222778 242.4715918 329.82979037 249.48263241 329.81669331 256.49382591 C329.81431631 259.07266222 329.81710202 261.651509 329.82531643 264.23033333 C329.83569043 267.73901226 329.82775863 271.24717491 329.8150053 274.75583458 C329.82237959 275.7864596 329.82975387 276.81708462 329.83735162 277.8789407 C329.83014508 278.81538037 329.82293853 279.75182003 329.81551361 280.71663666 C329.81556863 281.52690752 329.81562364 282.33717839 329.81568033 283.17200291 C329.34220205 285.80560256 328.5599465 286.66129079 326.4407835 288.25726891 C322.60365218 289.25208073 320.34028936 289.61707125 316.6282835 288.13226891 C313.99465018 285.87486891 313.44555521 284.5717343 312.4407835 281.25726891 C312.25861471 278.47817928 312.1791904 275.80239244 312.20027447 273.02525902 C312.19770641 271.79063675 312.19770641 271.79063675 312.19508648 270.53107262 C312.19177838 267.76678345 312.2028194 265.00273707 312.21373272 262.23847008 C312.21434541 260.22538733 312.21407837 258.21230416 312.2130022 256.19922161 C312.21255053 250.80640699 312.22414551 245.41368106 312.23822308 240.02088737 C312.24960965 234.96120994 312.25014914 229.90155411 312.25157452 224.84186363 C312.26207079 210.0428203 312.28999308 195.24379349 312.3157835 180.44476891 C312.3570335 147.38289391 312.3982835 114.32101891 312.4407835 80.25726891 C207.5007835 80.25726891 102.5607835 80.25726891 -5.5592165 80.25726891 C-5.44042948 145.76231069 -5.44042948 145.76231069 -5.28895283 211.26727867 C-5.27540302 223.93097496 -5.27540302 223.93097496 -5.27288532 229.85771751 C-5.2700882 234.00079216 -5.25883709 238.14375172 -5.24248981 242.28679466 C-5.22191325 247.57171163 -5.21574292 252.85646121 -5.21999967 258.14141452 C-5.21910955 260.0808515 -5.21316022 262.02029433 -5.20157111 263.95969689 C-5.18663551 266.58091388 -5.19025105 269.20148175 -5.19845295 271.82271385 C-5.18534596 272.95908492 -5.18534596 272.95908492 -5.17197418 274.11841297 C-5.21457938 279.18910469 -6.1815571 282.75354327 -8.5592165 287.25726891 C-11.68864115 288.82198123 -15.17003873 288.95428848 -18.5592165 288.25726891 C-20.65686512 286.89087868 -20.65686512 286.89087868 -22.5592165 284.25726891 C-23.17462936 280.74355311 -23.09823309 277.2529865 -23.06715107 273.69373131 C-23.07339103 272.60564965 -23.07963099 271.517568 -23.08606005 270.39651418 C-23.10205975 266.73757627 -23.08935782 263.07929811 -23.07679462 259.42035484 C-23.08221274 256.80223259 -23.08933364 254.18411338 -23.09803486 251.56599998 C-23.11583811 245.18431077 -23.11197146 238.80280956 -23.10038429 232.42111292 C-23.09135414 227.23295034 -23.09012416 222.04484047 -23.09447956 216.85667229 C-23.09509249 216.11850258 -23.09570543 215.38033287 -23.09633693 214.61979438 C-23.09761583 213.12020735 -23.09891269 211.62062034 -23.1002273 210.12103334 C-23.1116392 196.05191233 -23.09851152 181.98289549 -23.07702583 167.91379157 C-23.0591691 155.84773044 -23.06224596 143.78182332 -23.08070087 131.715765 C-23.10212245 117.70351572 -23.11052487 103.69135792 -23.09825182 89.67909455 C-23.09697764 88.18377258 -23.09572016 86.68845059 -23.09447956 85.19312859 C-23.09386246 84.45741679 -23.09324536 83.721705 -23.09260955 82.96369891 C-23.0891594 77.78516348 -23.09497809 72.60668615 -23.10439777 67.42815971 C-23.11680934 60.45137931 -23.10793096 53.47489407 -23.08482075 46.49814224 C-23.07953261 43.93753797 -23.08104917 41.37690923 -23.08987141 38.8163147 C-23.10080606 35.320127 -23.08708644 31.82486955 -23.06715107 28.32874107 C-23.07607396 27.31588909 -23.08499684 26.3030371 -23.09419012 25.25949264 C-23.0132817 17.94097488 -21.4645142 12.57265833 -16.59437275 7.01508141 C-15.94339619 6.47625328 -15.29241962 5.93742516 -14.6217165 5.38226891 C-13.97331806 4.82797203 -13.32491962 4.27367516 -12.65687275 3.70258141 C-8.55249783 0.87461358 -4.94678844 0.00726138 0 0 Z M-5.5592165 20.25726891 C-5.5592165 34.77726891 -5.5592165 49.29726891 -5.5592165 64.25726891 C99.3807835 64.25726891 204.3207835 64.25726891 312.4407835 64.25726891 C315.65034824 39.18741399 315.65034824 39.18741399 309.4407835 17.25726891 C306.42400148 16.05443393 303.43668178 16.13110333 300.21487808 16.12863445 C299.15104513 16.12541001 298.08721217 16.12218556 296.99114186 16.1188634 C295.82335554 16.12041201 294.65556922 16.12196061 293.45239544 16.12355614 C291.59046076 16.1201578 291.59046076 16.1201578 289.69091123 16.11669081 C286.24350602 16.11144866 282.79615289 16.11070711 279.34874737 16.11188519 C275.63157376 16.11208904 271.91440795 16.10657197 268.19723797 16.10182762 C260.91423436 16.09351745 253.63123885 16.09077262 246.34823091 16.09021524 C240.42969845 16.0897403 234.51116867 16.08768667 228.59263706 16.08451462 C211.81898798 16.07570744 195.0453453 16.0710954 178.27169389 16.07184509 C177.36722247 16.07188505 176.46275104 16.071925 175.53087139 16.07196617 C174.62529806 16.07200705 173.71972473 16.07204793 172.78670978 16.07209005 C158.10484931 16.07249666 143.42301447 16.0629237 128.74116141 16.0488278 C113.67229345 16.03447427 98.60343799 16.02755704 83.534563 16.02842158 C75.07194209 16.02875388 66.60934805 16.02599234 58.14673328 16.01524353 C50.94268394 16.00615202 43.73867366 16.00395218 36.53462107 16.01075295 C32.85808772 16.01402486 29.18162939 16.01405074 25.50510311 16.0053997 C21.52208545 15.99612372 17.53917815 16.00229315 13.5561552 16.01003075 C12.39059961 16.00488718 11.22504401 15.99974362 10.02416855 15.99444419 C8.95772785 15.99904299 7.89128715 16.00364178 6.79253006 16.00837994 C5.87311711 16.00816257 4.95370416 16.0079452 4.00643021 16.00772125 C0.0217883 16.39528749 -2.72297024 17.42102265 -5.5592165 20.25726891 Z " fill="#000000" transform="translate(102.55921649932861,15.742731094360352)"/>
<path d="M0 0 C4.15672698 0.74227268 5.83984093 1.31995388 8.5 4.625 C9.85417618 10.62206594 8.6953434 13.78585969 5.46533203 19.01220703 C2.3628632 23.76749775 -0.94678948 28.18348685 -4.5 32.625 C28.5 32.625 61.5 32.625 95.5 32.625 C92.53 28.665 89.56 24.705 86.5 20.625 C83.20070235 15.87723022 81.76133238 12.37864083 82.0546875 6.6484375 C82.5 4.625 82.5 4.625 84.5625 2.0625 C88.30023996 0.23339321 90.38971216 -0.10897997 94.5 0.625 C98.05152416 3.91015985 100.21520005 7.77629824 102.75 11.875 C106.40062144 17.72555925 110.71925937 22.6753286 115.5 27.625 C116.21285156 28.53378906 116.92570313 29.44257813 117.66015625 30.37890625 C121.75352512 33.61644009 125.23720027 33.2584571 130.3125 33.1875 C138.50660408 33.10806424 144.43058362 34.05894348 150.7421875 39.58984375 C157.52988087 47.79028669 158.66865505 55.00948397 158.75 65.625 C158.7809375 66.63433594 158.7809375 66.63433594 158.8125 67.6640625 C158.85207119 72.78853131 157.84105418 76.17017845 155.5 80.625 C152.24578498 82.25210751 148.66246534 81.77296359 145.08621216 81.77217102 C144.20527826 81.77584771 143.32434437 81.7795244 142.4167155 81.7833125 C139.44723813 81.79437812 136.47779571 81.79819802 133.50830078 81.80200195 C131.38644295 81.80826433 129.26458623 81.81491092 127.14273071 81.82191467 C121.36590912 81.8393431 115.58909581 81.84988102 109.81225443 81.8581202 C106.20639685 81.86326543 102.60054187 81.86934131 98.99468613 81.87563133 C87.72223055 81.89468677 76.44978156 81.90891832 65.17731297 81.9172433 C52.14715957 81.92702428 39.11717567 81.95336484 26.08708203 81.99374419 C16.02676372 82.02385529 5.96649414 82.03870733 -4.09386837 82.04202431 C-10.10795229 82.04438013 -16.12185521 82.05340975 -22.13589096 82.07848549 C-27.79116408 82.10168429 -33.44613597 82.10603251 -39.10144424 82.09572411 C-41.17997486 82.09522667 -43.2585199 82.10160793 -45.33700562 82.11528015 C-48.16911771 82.13287118 -51.00013367 82.12595628 -53.83224487 82.11274719 C-54.6596741 82.12371644 -55.48710333 82.13468568 -56.33960617 82.14598733 C-59.94701561 82.10521143 -62.06683901 81.94522575 -65.00938606 79.7698698 C-66.98403195 76.92851817 -67.01657782 75.05419274 -67.03125 71.609375 C-67.03640625 70.44019531 -67.0415625 69.27101563 -67.046875 68.06640625 C-67.02367187 66.23916016 -67.02367187 66.23916016 -67 64.375 C-67.01546875 63.17230469 -67.0309375 61.96960938 -67.046875 60.73046875 C-67.01045162 52.43504293 -66.05533997 46.68218716 -60.53515625 40.3828125 C-59.88417969 39.84398437 -59.23320312 39.30515625 -58.5625 38.75 C-57.58990234 37.91855469 -57.58990234 37.91855469 -56.59765625 37.0703125 C-51.82141171 33.77941775 -48.19590594 33.54061969 -42.55786133 33.70629883 C-35.61146653 33.82214758 -29.62935016 33.79854552 -24.26806641 28.9765625 C-18.85344076 23.25133606 -14.56097167 16.60003921 -10.53515625 9.8515625 C-4.86978025 0.86960362 -4.86978025 0.86960362 0 0 Z M-47.5 51.625 C-50.51695036 55.54950033 -50.51695036 55.54950033 -49.5 65.625 C13.53 65.625 76.56 65.625 141.5 65.625 C141.75648304 58.50185072 141.75648304 58.50185072 139.5 52.625 C135.75633048 48.88133048 131.46527962 49.49791705 126.37098694 49.49128723 C125.65239185 49.48902167 124.93379677 49.48675612 124.19342607 49.48442191 C121.78526576 49.4780912 119.37716186 49.47891067 116.96899414 49.47973633 C115.24254788 49.47674429 113.5161023 49.47334165 111.78965759 49.46955872 C107.09962209 49.46071981 102.40960484 49.45838067 97.71956182 49.45774293 C93.80543844 49.45679364 89.89131932 49.45311517 85.97719759 49.44957083 C76.74399216 49.44142694 67.51079649 49.43898657 58.27758789 49.43969727 C48.74932376 49.44029828 39.2211162 49.42974152 29.69286638 49.4139536 C21.51442862 49.40088459 13.33600937 49.39551309 5.15756124 49.39615268 C0.27197782 49.39640782 -4.61355531 49.39354746 -9.49912834 49.38297462 C-14.09311093 49.37330423 -18.68699504 49.37320719 -23.28098106 49.38049126 C-24.96723321 49.38153837 -26.65349146 49.37916674 -28.33973312 49.3731308 C-30.64127279 49.36542579 -32.9424711 49.37004565 -35.2440033 49.37776184 C-37.17612372 49.37694469 -37.17612372 49.37694469 -39.14727688 49.37611103 C-42.42939092 49.61975834 -44.61515615 50.0679316 -47.5 51.625 Z " fill="#000000" transform="translate(210.5,414.375)"/>
<path d="M0 0 C2.85105125 2.66098117 3.62120349 5.17456945 4 9 C3.32820452 11.76567253 2.57534151 14.3364152 1.65698242 17.01806641 C1.3932892 17.81922756 1.12959599 18.62038872 0.85791206 19.44582748 C-0.02750726 22.126608 -0.92978478 24.80140287 -1.83203125 27.4765625 C-2.46778897 29.39015173 -3.1024321 31.30411158 -3.73603821 33.21841431 C-5.09894336 37.32976279 -6.46884924 41.43868878 -7.84381104 45.54602051 C-10.01251308 52.02861479 -12.15749009 58.51890534 -14.29833984 65.01074219 C-17.61636241 75.06675848 -20.94881245 85.11788861 -24.29212761 95.16552353 C-26.20389328 100.91105421 -28.11313723 106.65739394 -30.01635742 112.40576172 C-31.90102971 118.09808573 -33.7915129 123.78844717 -35.68631935 129.47740555 C-36.39761631 131.61614716 -37.1068973 133.7555604 -37.81406212 135.89567184 C-38.79059369 138.84950562 -39.77459997 141.80074642 -40.76049805 144.75146484 C-41.0456427 145.61970886 -41.33078735 146.48795288 -41.62457275 147.38250732 C-45.20055756 158.01848594 -45.20055756 158.01848594 -49.75 160.5 C-54.07295745 161.16507038 -56.24926028 160.1638883 -60 158 C-61.46852762 155.81881573 -62.02269131 154.54392081 -61.91257381 151.90435505 C-60.26856018 144.53638301 -57.99798082 137.42989886 -55.59790039 130.27612305 C-55.14878183 128.9233362 -54.70017256 127.57038019 -54.25202942 126.2172699 C-53.04268932 122.57113944 -51.82586243 118.92755028 -50.60726857 115.2845037 C-49.32916875 111.46038718 -48.05696366 107.63430945 -46.78379822 103.80854797 C-44.64704201 97.39102203 -42.50525749 90.97519067 -40.3605957 84.56030273 C-37.88351157 77.15085416 -35.41511776 69.73855277 -32.95117193 62.32472581 C-30.83068447 55.94510138 -28.7055166 49.56705031 -26.57644075 43.19028693 C-25.30683345 39.38769043 -24.03883887 35.58457702 -22.7750721 31.78003502 C-21.58787159 28.20686281 -20.39479852 24.63570479 -19.19720268 21.0660038 C-18.75936968 19.75778353 -18.32356616 18.44888197 -17.88996887 17.13925171 C-17.29675704 15.34864677 -16.69538834 13.56075032 -16.09364319 11.772995 C-15.75978639 10.77293269 -15.42592958 9.77287039 -15.08195591 8.74250317 C-13.6917622 5.21868984 -12.26901467 1.99708295 -9.25 -0.375 C-5.86406073 -1.31553869 -3.37798992 -0.85985198 0 0 Z " fill="#000000" transform="translate(285,128)"/>
<path d="M0 0 C1.87135504 1.55604453 3.6679253 3.16870894 5.45410156 4.82177734 C6.77854623 6.00917673 8.10407326 7.19536991 9.43066406 8.38037109 C10.07422852 8.96028809 10.71779297 9.54020508 11.38085938 10.13769531 C13.80523258 12.29392011 16.30557085 14.34547174 18.82910156 16.38427734 C23.41536737 20.09826675 27.92110784 23.8970723 32.41259766 27.72436523 C36.65129331 31.32375085 40.98202459 34.79182731 45.37597656 38.20068359 C48.2238688 40.62869428 48.20043537 41.7220044 48.57910156 45.57177734 C48.51021882 48.7748249 48.36042607 49.55605548 46.32910156 52.19677734 C45.29756581 53.06315147 44.25392821 53.91515997 43.20410156 54.75927734 C41.65978215 56.17305177 40.11842273 57.59006245 38.57910156 59.00927734 C34.19417851 62.93433402 29.6895333 66.68025379 25.11425781 70.38037109 C22.53405007 72.48956104 19.9925684 74.63378801 17.46166992 76.80126953 C14.72544311 79.14017673 11.9687478 81.45406913 9.20410156 83.75927734 C8.63304687 84.23671387 8.06199219 84.71415039 7.47363281 85.20605469 C5.77182709 86.61578083 4.05382999 88.00273724 2.32910156 89.38427734 C1.32105469 90.20154297 0.31300781 91.01880859 -0.72558594 91.86083984 C-4.22791919 94.02640468 -6.69819074 94.61847933 -10.79589844 94.75927734 C-13.5977929 92.99286562 -15.31114755 91.72877913 -16.79589844 88.75927734 C-17.20051566 85.11772233 -17.21712412 83.36034138 -15.08496094 80.31787109 C-12.81911404 77.78522653 -10.52129888 75.74057153 -7.85839844 73.63427734 C-6.8903125 72.85826172 -5.92222656 72.08224609 -4.92480469 71.28271484 C-4.41449707 70.87375977 -3.90418945 70.46480469 -3.37841797 70.04345703 C-0.64657457 67.82662638 2.02613062 65.54062984 4.70410156 63.25927734 C20.21469651 50.08554738 20.21469651 50.08554738 25.20410156 46.75927734 C25.20410156 46.09927734 25.20410156 45.43927734 25.20410156 44.75927734 C23.69622996 43.38436436 22.11870395 42.08563273 20.51660156 40.82177734 C19.00646484 39.61328125 19.00646484 39.61328125 17.46582031 38.38037109 C16.93005371 37.95224121 16.39428711 37.52411133 15.84228516 37.08300781 C13.13372308 34.89436048 10.48166801 32.64020586 7.82910156 30.38427734 C6.73928039 29.45846951 5.64943639 28.53268856 4.55957031 27.60693359 C4.01220215 27.14174316 3.46483398 26.67655273 2.90087891 26.19726562 C1.14797317 24.71170954 -0.6103405 23.23277948 -2.37011719 21.75537109 C-2.95422363 21.26407715 -3.53833008 20.7727832 -4.14013672 20.26660156 C-5.25322855 19.33064285 -6.3674183 18.39598766 -7.48291016 17.46289062 C-15.38096435 10.81044371 -15.38096435 10.81044371 -16.73339844 7.38427734 C-16.82031068 3.73396301 -15.80847986 1.77814947 -13.79589844 -1.24072266 C-9.15488062 -4.33473454 -4.36228301 -3.01374691 0 0 Z " fill="#000000" transform="translate(327.7958984375,162.24072265625)"/>
<path d="M0 0 C2.0625 2.6875 2.0625 2.6875 3 6 C1.9965254 11.9314971 -0.30667432 14.81390104 -4.9375 18.375 C-5.52088135 18.84558838 -6.1042627 19.31617676 -6.70532227 19.80102539 C-7.89710923 20.76064817 -9.09428982 21.71361251 -10.296875 22.65966797 C-12.70343544 24.5535924 -15.06940549 26.49580346 -17.4375 28.4375 C-18.31148437 29.14777344 -19.18546875 29.85804688 -20.0859375 30.58984375 C-24.24687455 34.03126219 -28.33169126 37.55989657 -32.40600586 41.10327148 C-36.78764949 44.89382474 -36.78764949 44.89382474 -39 46 C-39 46.66 -39 47.32 -39 48 C-37.49212839 49.37491299 -35.91460239 50.67364462 -34.3125 51.9375 C-33.30832031 52.74058594 -32.30414063 53.54367188 -31.26953125 54.37109375 C-30.73408691 54.79890137 -30.19864258 55.22670898 -29.64697266 55.66748047 C-26.8909152 57.8973295 -24.19769343 60.20018813 -21.5 62.5 C-15.08050875 67.95656756 -8.57709243 73.30763155 -2.01953125 78.59765625 C2.83961477 82.55653294 2.83961477 82.55653294 3.3125 86.8125 C2.92835642 90.7307645 1.70743683 92.21293267 -1 95 C-3.90331721 96.45165861 -5.77060423 96.36741628 -9 96 C-11.30033567 94.42018025 -13.16673635 92.93998212 -15.1875 91.0625 C-16.33645322 90.04208264 -17.48620479 89.02256355 -18.63671875 88.00390625 C-19.20438965 87.49359863 -19.77206055 86.98329102 -20.35693359 86.45751953 C-22.67903318 84.39764813 -25.08436821 82.44877469 -27.5 80.5 C-31.56330703 77.19375745 -35.57293628 73.83177147 -39.5625 70.4375 C-45.82970458 65.10908123 -52.20522278 59.92786691 -58.71875 54.90234375 C-61.91975311 52.2330141 -61.95664442 51.44078175 -62.375 47.1875 C-62.30611726 43.98445244 -62.15632451 43.20322186 -60.125 40.5625 C-59.09346425 39.69612587 -58.04982665 38.84411737 -57 38 C-55.45568059 36.58622558 -53.91432116 35.16921489 -52.375 33.75 C-47.99007695 29.82494333 -43.48543174 26.07902356 -38.91015625 22.37890625 C-36.32977521 20.26957463 -33.78830642 18.12487682 -31.2565918 15.95800781 C-26.21729273 11.64787263 -21.11491862 7.43974093 -15.875 3.375 C-15.33053223 2.94904541 -14.78606445 2.52309082 -14.22509766 2.08422852 C-8.97593005 -1.94345033 -6.2490405 -2.56657021 0 0 Z " fill="#000000" transform="translate(198,161)"/>
<path d="M0 0 C0.87204071 -0.0071553 1.74408142 -0.01431061 2.64254761 -0.02168274 C3.60154968 -0.02437164 4.56055176 -0.02706055 5.5486145 -0.02983093 C6.55685272 -0.03640213 7.56509094 -0.04297333 8.60388184 -0.04974365 C11.95020617 -0.06950266 15.29648562 -0.08114395 18.64285278 -0.09111023 C19.78341251 -0.09518576 20.92397224 -0.09926128 22.09909439 -0.10346031 C28.13369822 -0.12433036 34.16827924 -0.13862907 40.20291138 -0.147995 C46.4466064 -0.15907222 52.68994628 -0.1934849 58.93351555 -0.23316669 C63.72555216 -0.25926513 68.51750321 -0.26768072 73.30960464 -0.27127647 C75.61176075 -0.27615856 77.91391263 -0.28781828 80.2159996 -0.30631447 C83.43393166 -0.33056549 86.65093226 -0.32976656 89.868927 -0.32279968 C91.30135742 -0.34201477 91.30135742 -0.34201477 92.76272583 -0.36161804 C99.21566152 -0.31056528 99.21566152 -0.31056528 102.42803955 2.05154419 C103.94991922 4.31325163 104.38037301 5.4458768 104.33816528 8.14717102 C104.35363403 9.13717102 104.35363403 9.13717102 104.36941528 10.14717102 C103.54571074 13.24817637 102.44396465 14.23260016 99.83816528 16.14717102 C96.49557012 16.75421495 93.18218391 16.6829149 89.79299927 16.64888 C88.77310913 16.65428299 87.75321899 16.65968597 86.7024231 16.66525269 C83.32940707 16.67776569 79.9572402 16.66123235 76.58425903 16.64326477 C74.24303645 16.64341969 71.9018136 16.64490742 69.56059265 16.64767456 C64.65373398 16.64905967 59.74716721 16.63648039 54.84036255 16.61372375 C48.54282906 16.58532347 42.24578016 16.58807936 35.94821072 16.60081387 C31.11414939 16.6077598 26.2802006 16.5999944 21.44615364 16.58755684 C19.12366225 16.58303289 16.80115882 16.58271373 14.47866631 16.58662224 C11.23683665 16.58952416 7.99568134 16.5730763 4.75393677 16.55122375 C3.30680046 16.55797623 3.30680046 16.55797623 1.83042908 16.56486511 C0.94859955 16.55496048 0.06677002 16.54505585 -0.84178162 16.53485107 C-1.9912998 16.53120623 -1.9912998 16.53120623 -3.16404057 16.52748775 C-5.73109007 16.03880283 -6.59204643 15.20820182 -8.16183472 13.14717102 C-9.18921143 9.18443226 -9.5675594 7.03590129 -7.84933472 3.27217102 C-5.38149132 0.16451638 -3.798886 0.02136415 0 0 Z " fill="#000000" transform="translate(296.1618347167969,47.85282897949219)"/>
<path d="M0 0 C0.89489136 -0.0038269 1.78978271 -0.00765381 2.71179199 -0.01159668 C4.60132982 -0.0143152 6.49090532 -0.00695816 8.38037109 0.00976562 C11.2713619 0.03117677 14.15986767 0.00996266 17.05078125 -0.015625 C18.88802631 -0.01298171 20.72526983 -0.00785671 22.5625 0 C23.85794739 -0.01214539 23.85794739 -0.01214539 25.17956543 -0.02453613 C31.16511043 0.06890871 31.16511043 0.06890871 34.32421875 2.43945312 C35.90083984 4.70293997 36.32391099 5.80094692 36.28125 8.53125 C36.2915625 9.19125 36.301875 9.85125 36.3125 10.53125 C35.49882247 13.5945066 34.32666824 14.62120882 31.78125 16.53125 C28.71145039 17.13447294 25.68294398 17.09175553 22.5625 17.0625 C21.22016296 17.06824036 21.22016296 17.06824036 19.85070801 17.07409668 C17.96117018 17.0768152 16.07159468 17.06945816 14.18212891 17.05273438 C11.2911381 17.03132323 8.40263233 17.05253734 5.51171875 17.078125 C3.67447369 17.07548171 1.83723017 17.07035671 0 17.0625 C-1.29544739 17.07464539 -1.29544739 17.07464539 -2.61706543 17.08703613 C-8.60261043 16.99359129 -8.60261043 16.99359129 -11.76171875 14.62304688 C-13.33833984 12.35956003 -13.76141099 11.26155308 -13.71875 8.53125 C-13.73421875 7.54125 -13.73421875 7.54125 -13.75 6.53125 C-11.88736251 -0.48103233 -6.00642315 -0.05631284 0 0 Z " fill="#000000" transform="translate(245.21875,351.46875)"/>
<path d="M0 0 C2.5 1.5 2.5 1.5 4 4 C4.791013 8.02098277 4.62153384 10.96411027 2.5 14.5 C-1.03588973 16.62153384 -3.97901723 16.791013 -8 16 C-10.5 14.5 -10.5 14.5 -12 12 C-12.791013 7.97901723 -12.62153384 5.03588973 -10.5 1.5 C-6.96411027 -0.62153384 -4.02098277 -0.791013 0 0 Z " fill="#000000" transform="translate(188,48)"/>
<path d="M0 0 C2.5 1.5 2.5 1.5 4 4 C4.791013 8.02098277 4.62153384 10.96411027 2.5 14.5 C-1.03588973 16.62153384 -3.97901723 16.791013 -8 16 C-10.5 14.5 -10.5 14.5 -12 12 C-12.791013 7.97901723 -12.62153384 5.03588973 -10.5 1.5 C-6.96411027 -0.62153384 -4.02098277 -0.791013 0 0 Z " fill="#000000" transform="translate(156,48)"/>
<path d="M0 0 C2.5 1.5 2.5 1.5 4 4 C4.791013 8.02098277 4.62153384 10.96411027 2.5 14.5 C-1.03588973 16.62153384 -3.97901723 16.791013 -8 16 C-10.5 14.5 -10.5 14.5 -12 12 C-12.791013 7.97901723 -12.62153384 5.03588973 -10.5 1.5 C-6.96411027 -0.62153384 -4.02098277 -0.791013 0 0 Z " fill="#000000" transform="translate(124,48)"/>
</svg>
