<svg width="103" height="30" viewBox="0 0 103 30" fill="none" xmlns="http://www.w3.org/2000/svg">
<g clip-path="url(#clip0_19_1963)">
<path d="M26.1973 5.05078C23.4551 1.95703 19.4648 0 15 0C6.71484 0 0 6.71484 0 15H3.75C3.75 8.7832 8.7832 3.75 15 3.75C18.4277 3.75 21.4688 5.30273 23.5254 7.72266L19.998 11.25H30V1.24805L26.1973 5.05078ZM15 26.25C11.5723 26.25 8.53125 24.6973 6.47461 22.2773L10.002 18.75H0V28.752L3.80273 24.9492C6.54492 28.043 10.541 30 15 30C23.2852 30 30 23.2852 30 15H26.25C26.25 21.2168 21.2168 26.25 15 26.25ZM17.502 15C17.502 13.6172 16.3828 12.498 15 12.498C13.6172 12.498 12.498 13.6172 12.498 15C12.498 16.3828 13.6172 17.502 15 17.502C16.3828 17.502 17.502 16.3828 17.502 15Z" fill="#FF852E"/>
</g>
<path d="M43.12 21V9.48H44.856L48.84 17.64L52.824 9.48H54.56V21H52.76V13.616L49.224 21H48.456L44.928 13.616V21H43.12ZM57.9435 24.84L59.6075 20.272L59.6395 21.616L55.8715 12.36H57.8795L60.5515 19.208H60.0395L62.6395 12.36H64.5675L59.7515 24.84H57.9435ZM65.9206 21V9.48H67.8486V19.192H72.9366V21H65.9206ZM78.1079 21.24C77.2439 21.24 76.4892 21.0453 75.8439 20.656C75.1985 20.2667 74.6972 19.7307 74.3399 19.048C73.9879 18.36 73.8119 17.5707 73.8119 16.68C73.8119 15.7733 73.9932 14.9787 74.3559 14.296C74.7185 13.6133 75.2225 13.08 75.8679 12.696C76.5132 12.312 77.2599 12.12 78.1079 12.12C78.9772 12.12 79.7345 12.3147 80.3799 12.704C81.0252 13.0933 81.5265 13.632 81.8839 14.32C82.2412 15.0027 82.4199 15.7893 82.4199 16.68C82.4199 17.576 82.2385 18.368 81.8759 19.056C81.5185 19.7387 81.0172 20.2747 80.3719 20.664C79.7265 21.048 78.9719 21.24 78.1079 21.24ZM78.1079 19.432C78.8759 19.432 79.4465 19.176 79.8199 18.664C80.1932 18.152 80.3799 17.4907 80.3799 16.68C80.3799 15.8427 80.1905 15.176 79.8119 14.68C79.4332 14.1787 78.8652 13.928 78.1079 13.928C77.5905 13.928 77.1639 14.0453 76.8279 14.28C76.4972 14.5093 76.2519 14.832 76.0919 15.248C75.9319 15.6587 75.8519 16.136 75.8519 16.68C75.8519 17.5173 76.0412 18.1867 76.4199 18.688C76.8039 19.184 77.3665 19.432 78.1079 19.432ZM87.8145 25.08C87.3345 25.08 86.8732 25.0053 86.4305 24.856C85.9932 24.7067 85.5985 24.4907 85.2465 24.208C84.8945 23.9307 84.6065 23.5947 84.3825 23.2L86.1585 22.32C86.3238 22.6347 86.5558 22.8667 86.8545 23.016C87.1585 23.1707 87.4812 23.248 87.8225 23.248C88.2225 23.248 88.5798 23.176 88.8945 23.032C89.2092 22.8933 89.4518 22.6853 89.6225 22.408C89.7985 22.136 89.8812 21.7947 89.8705 21.384V18.928H90.1105V12.36H91.7985V21.416C91.7985 21.6347 91.7878 21.8427 91.7665 22.04C91.7505 22.2427 91.7212 22.44 91.6785 22.632C91.5505 23.192 91.3052 23.6507 90.9425 24.008C90.5798 24.3707 90.1292 24.64 89.5905 24.816C89.0572 24.992 88.4652 25.08 87.8145 25.08ZM87.6465 21.24C86.8518 21.24 86.1585 21.04 85.5665 20.64C84.9745 20.24 84.5158 19.696 84.1905 19.008C83.8652 18.32 83.7025 17.544 83.7025 16.68C83.7025 15.8053 83.8652 15.0267 84.1905 14.344C84.5212 13.656 84.9878 13.1147 85.5905 12.72C86.1932 12.32 86.9025 12.12 87.7185 12.12C88.5398 12.12 89.2278 12.32 89.7825 12.72C90.3425 13.1147 90.7665 13.656 91.0545 14.344C91.3425 15.032 91.4865 15.8107 91.4865 16.68C91.4865 17.5387 91.3425 18.3147 91.0545 19.008C90.7665 19.696 90.3372 20.24 89.7665 20.64C89.1958 21.04 88.4892 21.24 87.6465 21.24ZM87.9425 19.512C88.4598 19.512 88.8758 19.3947 89.1905 19.16C89.5105 18.92 89.7425 18.5867 89.8865 18.16C90.0358 17.7333 90.1105 17.24 90.1105 16.68C90.1105 16.1147 90.0358 15.6213 89.8865 15.2C89.7425 14.7733 89.5158 14.4427 89.2065 14.208C88.8972 13.968 88.4972 13.848 88.0065 13.848C87.4892 13.848 87.0625 13.976 86.7265 14.232C86.3905 14.4827 86.1425 14.824 85.9825 15.256C85.8225 15.6827 85.7425 16.1573 85.7425 16.68C85.7425 17.208 85.8198 17.688 85.9745 18.12C86.1345 18.5467 86.3772 18.8853 86.7025 19.136C87.0278 19.3867 87.4412 19.512 87.9425 19.512ZM97.8579 21.24C96.9939 21.24 96.2392 21.0453 95.5939 20.656C94.9485 20.2667 94.4472 19.7307 94.0899 19.048C93.7379 18.36 93.5619 17.5707 93.5619 16.68C93.5619 15.7733 93.7432 14.9787 94.1059 14.296C94.4685 13.6133 94.9725 13.08 95.6179 12.696C96.2632 12.312 97.0099 12.12 97.8579 12.12C98.7272 12.12 99.4845 12.3147 100.13 12.704C100.775 13.0933 101.277 13.632 101.634 14.32C101.991 15.0027 102.17 15.7893 102.17 16.68C102.17 17.576 101.989 18.368 101.626 19.056C101.269 19.7387 100.767 20.2747 100.122 20.664C99.4765 21.048 98.7219 21.24 97.8579 21.24ZM97.8579 19.432C98.6259 19.432 99.1965 19.176 99.5699 18.664C99.9432 18.152 100.13 17.4907 100.13 16.68C100.13 15.8427 99.9405 15.176 99.5619 14.68C99.1832 14.1787 98.6152 13.928 97.8579 13.928C97.3405 13.928 96.9139 14.0453 96.5779 14.28C96.2472 14.5093 96.0019 14.832 95.8419 15.248C95.6819 15.6587 95.6019 16.136 95.6019 16.68C95.6019 17.5173 95.7912 18.1867 96.1699 18.688C96.5539 19.184 97.1165 19.432 97.8579 19.432Z" fill="#FF852E"/>
<defs>
<clipPath id="clip0_19_1963">
<rect width="30" height="30" fill="white"/>
</clipPath>
</defs>
</svg>
