<svg width="54" height="55" viewBox="0 0 54 55" fill="none" xmlns="http://www.w3.org/2000/svg">
<rect y="0.139404" width="54" height="54.4954" rx="27" fill="white"/>
<path d="M24.7707 5.09351C14.9214 5.09351 6.93579 12.9966 6.93579 22.7478C6.93579 26.0762 7.86543 29.1906 9.48395 31.8458M32.5734 25.1577V29.6164M39.2615 25.1577V29.6164M32.5734 7.32286V11.7816M39.2615 7.32286V11.7816M29.2294 15.1256H24.7707M29.2294 21.8137H24.7707M47.0642 15.1256H42.6055M47.0642 21.8137H42.6055M31.4587 42.9926L31.1689 44.435C30.8568 46.0111 30.6985 46.7981 30.344 47.4223C29.7978 48.3844 28.9135 49.1091 27.8628 49.4555C27.1828 49.6807 26.3758 49.6807 24.7707 49.6807C23.1655 49.6807 22.3585 49.6807 21.6785 49.4577C20.6275 49.1108 19.743 48.3852 19.1973 47.4223C18.8428 46.7981 18.6845 46.0111 18.3724 44.435L18.0826 42.9926M38.1468 11.7816H33.6881C31.5858 11.7816 30.5358 11.7816 29.8826 12.4348C29.2294 13.088 29.2294 14.138 29.2294 16.2403V20.699C29.2294 22.8013 29.2294 23.8513 29.8826 24.5045C30.5358 25.1577 31.5858 25.1577 33.6881 25.1577H38.1468C40.2491 25.1577 41.2991 25.1577 41.9523 24.5045C42.6055 23.8513 42.6055 22.8013 42.6055 20.699V16.2403C42.6055 14.138 42.6055 13.088 41.9523 12.4348C41.2991 11.7816 40.2491 11.7816 38.1468 11.7816ZM14.4777 38.7523C14.2726 38.137 14.1701 37.8272 14.1812 37.5775C14.1938 37.3193 14.281 37.0703 14.4321 36.8606C14.5832 36.6509 14.7919 36.4895 15.0328 36.3959C15.2647 36.3045 15.5902 36.3045 16.2367 36.3045H33.3046C33.9534 36.3045 34.2766 36.3045 34.5085 36.3937C34.7498 36.4875 34.9586 36.6492 35.1098 36.8593C35.261 37.0694 35.3479 37.3189 35.3601 37.5775C35.3713 37.8272 35.2687 38.1348 35.0636 38.7523C34.6846 39.8915 34.4951 40.4623 34.2031 40.9237C33.5922 41.8882 32.6347 42.5816 31.5278 42.8611C30.9973 42.9926 30.3998 42.9926 29.2026 42.9926H20.3387C19.1415 42.9926 18.5418 42.9926 18.0135 42.8588C16.907 42.5799 15.9495 41.8873 15.3382 40.9237C15.0462 40.4623 14.8567 39.8915 14.4777 38.7523Z" stroke="#FF852E" stroke-width="3.34404" stroke-linecap="round" stroke-linejoin="round"/>
</svg>
