<svg width="54" height="55" viewBox="0 0 54 55" fill="none" xmlns="http://www.w3.org/2000/svg">
<path d="M27 7.13721C16.2 7.13721 6.75 15.8222 6.75 27.3872C6.75 32.1572 8.415 36.5447 11.1825 40.0097L6.75 44.4647L9.9225 47.6372L14.355 43.2047C17.9449 46.0743 22.4041 47.6374 27 47.6372C32.175 47.6372 37.3725 45.6572 41.31 41.6972C43.1959 39.8223 44.6918 37.5925 45.7113 35.1364C46.7309 32.6802 47.2538 30.0465 47.25 27.3872V7.13721H27ZM42.75 27.3872C42.75 31.5947 41.1075 35.5547 38.1375 38.5247C36.6778 39.9912 34.942 41.1539 33.0304 41.9456C31.1187 42.7373 29.0691 43.1423 27 43.1372C18.315 43.1372 11.25 36.0722 11.25 27.3872C11.25 23.1122 12.915 19.1072 15.975 16.1597C18.9077 13.2541 22.8717 11.628 27 11.6372H42.75V27.3872Z" fill="#FF852E"/>
<path d="M19.0351 28.8046L28.1476 29.7046L22.6576 37.1971C22.4101 37.5571 22.4326 38.0521 22.7476 38.3671C23.0851 38.7046 23.6476 38.7271 24.0076 38.3896L35.6176 27.9721C36.3601 27.2971 35.9551 26.0596 34.9426 25.9696L25.8301 25.0696L31.3201 17.5771C31.5676 17.2171 31.5451 16.7221 31.2301 16.4071C31.0634 16.2418 30.8394 16.1472 30.6046 16.143C30.3699 16.1388 30.1426 16.2253 29.9701 16.3846L18.3601 26.8021C17.6401 27.4771 18.0451 28.7146 19.0351 28.8046Z" fill="#FF852E"/>
</svg>
