<svg width="54" height="55" viewBox="0 0 54 55" fill="none" xmlns="http://www.w3.org/2000/svg">
<path d="M31.5 7.13721V16.1372C31.5 16.7339 31.7371 17.3062 32.159 17.7282C32.581 18.1502 33.1533 18.3872 33.75 18.3872H42.75" stroke="#FF852E" stroke-width="4.5" stroke-linecap="round" stroke-linejoin="round"/>
<path d="M11.25 18.3872V11.6372C11.25 10.4437 11.7241 9.29914 12.568 8.45523C13.4119 7.61131 14.5565 7.13721 15.75 7.13721H31.5L42.75 18.3872V43.1372C42.75 44.3307 42.2759 45.4753 41.432 46.3192C40.5881 47.1631 39.4435 47.6372 38.25 47.6372H27" stroke="#FF852E" stroke-width="4.5" stroke-linecap="round" stroke-linejoin="round"/>
<path d="M6.75 31.8872C6.75 33.6774 7.46116 35.3943 8.72703 36.6602C9.9929 37.926 11.7098 38.6372 13.5 38.6372C15.2902 38.6372 17.0071 37.926 18.273 36.6602C19.5388 35.3943 20.25 33.6774 20.25 31.8872C20.25 30.097 19.5388 28.3801 18.273 27.1142C17.0071 25.8484 15.2902 25.1372 13.5 25.1372C11.7098 25.1372 9.9929 25.8484 8.72703 27.1142C7.46116 28.3801 6.75 30.097 6.75 31.8872Z" stroke="#FF852E" stroke-width="4.5" stroke-linecap="round" stroke-linejoin="round"/>
<path d="M10.125 38.6372L6.75 49.8872L13.5 46.5122L20.25 49.8872L16.875 38.6372" stroke="#FF852E" stroke-width="4.5" stroke-linecap="round" stroke-linejoin="round"/>
</svg>
